<svg width="100" height="190" viewBox="0 0 100 190" fill="none" xmlns="http://www.w3.org/2000/svg">
<g clip-path="url(#clip0_45_1138)">
<circle cx="2.5" cy="2.5" r="2.5" fill="#408EC6"/>
<circle cx="11.5" cy="2.5" r="2.5" fill="#408EC6"/>
<circle cx="20.5" cy="2.5" r="2.5" fill="#408EC6"/>
<circle cx="29.5" cy="2.5" r="2.5" fill="#408EC6"/>
<circle cx="38.5" cy="2.5" r="2.5" fill="#408EC6"/>
<circle cx="47.5" cy="2.5" r="2.5" fill="#408EC6"/>
<circle cx="56.5" cy="2.5" r="2.5" fill="#408EC6"/>
<circle cx="65.5" cy="2.5" r="2.5" fill="#408EC6"/>
<circle cx="74.5" cy="2.5" r="2.5" fill="#408EC6"/>
<circle cx="83.5" cy="2.5" r="2.5" fill="#408EC6"/>
<circle cx="92.5" cy="2.5" r="2.5" fill="#408EC6"/>
<circle cx="2.5" cy="11.5" r="2.5" fill="#408EC6"/>
<circle cx="11.5" cy="11.5" r="2.5" fill="#408EC6"/>
<circle cx="20.5" cy="11.5" r="2.5" fill="#408EC6"/>
<circle cx="29.5" cy="11.5" r="2.5" fill="#408EC6"/>
<circle cx="38.5" cy="11.5" r="2.5" fill="#408EC6"/>
<circle cx="47.5" cy="11.5" r="2.5" fill="#408EC6"/>
<circle cx="56.5" cy="11.5" r="2.5" fill="#408EC6"/>
<circle cx="65.5" cy="11.5" r="2.5" fill="#408EC6"/>
<circle cx="74.5" cy="11.5" r="2.5" fill="#408EC6"/>
<circle cx="83.5" cy="11.5" r="2.5" fill="#408EC6"/>
<circle cx="92.5" cy="11.5" r="2.5" fill="#408EC6"/>
<circle cx="2.5" cy="20.5" r="2.5" fill="#408EC6"/>
<circle cx="11.5" cy="20.5" r="2.5" fill="#408EC6"/>
<circle cx="20.5" cy="20.5" r="2.5" fill="#408EC6"/>
<circle cx="29.5" cy="20.5" r="2.5" fill="#408EC6"/>
<circle cx="38.5" cy="20.5" r="2.5" fill="#408EC6"/>
<circle cx="47.5" cy="20.5" r="2.5" fill="#408EC6"/>
<circle cx="56.5" cy="20.5" r="2.5" fill="#408EC6"/>
<circle cx="65.5" cy="20.5" r="2.5" fill="#408EC6"/>
<circle cx="74.5" cy="20.5" r="2.5" fill="#408EC6"/>
<circle cx="83.5" cy="20.5" r="2.5" fill="#408EC6"/>
<circle cx="92.5" cy="20.5" r="2.5" fill="#408EC6"/>
<circle cx="2.5" cy="29.5" r="2.5" fill="#408EC6"/>
<circle cx="11.5" cy="29.5" r="2.5" fill="#408EC6"/>
<circle cx="20.5" cy="29.5" r="2.5" fill="#408EC6"/>
<circle cx="29.5" cy="29.5" r="2.5" fill="#408EC6"/>
<circle cx="38.5" cy="29.5" r="2.5" fill="#408EC6"/>
<circle cx="47.5" cy="29.5" r="2.5" fill="#408EC6"/>
<circle cx="56.5" cy="29.5" r="2.5" fill="#408EC6"/>
<circle cx="65.5" cy="29.5" r="2.5" fill="#408EC6"/>
<circle cx="74.5" cy="29.5" r="2.5" fill="#408EC6"/>
<circle cx="83.5" cy="29.5" r="2.5" fill="#408EC6"/>
<circle cx="92.5" cy="29.5" r="2.5" fill="#408EC6"/>
<circle cx="2.5" cy="38.5" r="2.5" fill="#408EC6"/>
<circle cx="11.5" cy="38.5" r="2.5" fill="#408EC6"/>
<circle cx="20.5" cy="38.5" r="2.5" fill="#408EC6"/>
<circle cx="29.5" cy="38.5" r="2.5" fill="#408EC6"/>
<circle cx="38.5" cy="38.5" r="2.5" fill="#408EC6"/>
<circle cx="47.5" cy="38.5" r="2.5" fill="#408EC6"/>
<circle cx="56.5" cy="38.5" r="2.5" fill="#408EC6"/>
<circle cx="65.5" cy="38.5" r="2.5" fill="#408EC6"/>
<circle cx="74.5" cy="38.5" r="2.5" fill="#408EC6"/>
<circle cx="83.5" cy="38.5" r="2.5" fill="#408EC6"/>
<circle cx="92.5" cy="38.5" r="2.5" fill="#408EC6"/>
<circle cx="2.5" cy="47.5" r="2.5" fill="#408EC6"/>
<circle cx="11.5" cy="47.5" r="2.5" fill="#408EC6"/>
<circle cx="20.5" cy="47.5" r="2.5" fill="#408EC6"/>
<circle cx="29.5" cy="47.5" r="2.5" fill="#408EC6"/>
<circle cx="38.5" cy="47.5" r="2.5" fill="#408EC6"/>
<circle cx="47.5" cy="47.5" r="2.5" fill="#408EC6"/>
<circle cx="56.5" cy="47.5" r="2.5" fill="#408EC6"/>
<circle cx="65.5" cy="47.5" r="2.5" fill="#408EC6"/>
<circle cx="74.5" cy="47.5" r="2.5" fill="#408EC6"/>
<circle cx="83.5" cy="47.5" r="2.5" fill="#408EC6"/>
<circle cx="92.5" cy="47.5" r="2.5" fill="#408EC6"/>
<circle cx="2.5" cy="56.5" r="2.5" fill="#408EC6"/>
<circle cx="11.5" cy="56.5" r="2.5" fill="#408EC6"/>
<circle cx="20.5" cy="56.5" r="2.5" fill="#408EC6"/>
<circle cx="29.5" cy="56.5" r="2.5" fill="#408EC6"/>
<circle cx="38.5" cy="56.5" r="2.5" fill="#408EC6"/>
<circle cx="47.5" cy="56.5" r="2.5" fill="#408EC6"/>
<circle cx="56.5" cy="56.5" r="2.5" fill="#408EC6"/>
<circle cx="65.5" cy="56.5" r="2.5" fill="#408EC6"/>
<circle cx="74.5" cy="56.5" r="2.5" fill="#408EC6"/>
<circle cx="83.5" cy="56.5" r="2.5" fill="#408EC6"/>
<circle cx="92.5" cy="56.5" r="2.5" fill="#408EC6"/>
<circle cx="2.5" cy="65.5" r="2.5" fill="#408EC6"/>
<circle cx="11.5" cy="65.5" r="2.5" fill="#408EC6"/>
<circle cx="20.5" cy="65.5" r="2.5" fill="#408EC6"/>
<circle cx="29.5" cy="65.5" r="2.5" fill="#408EC6"/>
<circle cx="38.5" cy="65.5" r="2.5" fill="#408EC6"/>
<circle cx="47.5" cy="65.5" r="2.5" fill="#408EC6"/>
<circle cx="56.5" cy="65.5" r="2.5" fill="#408EC6"/>
<circle cx="65.5" cy="65.5" r="2.5" fill="#408EC6"/>
<circle cx="74.5" cy="65.5" r="2.5" fill="#408EC6"/>
<circle cx="83.5" cy="65.5" r="2.5" fill="#408EC6"/>
<circle cx="92.5" cy="65.5" r="2.5" fill="#408EC6"/>
<circle cx="2.5" cy="74.5" r="2.5" fill="#408EC6"/>
<circle cx="11.5" cy="74.5" r="2.5" fill="#408EC6"/>
<circle cx="20.5" cy="74.5" r="2.5" fill="#408EC6"/>
<circle cx="29.5" cy="74.5" r="2.5" fill="#408EC6"/>
<circle cx="38.5" cy="74.5" r="2.5" fill="#408EC6"/>
<circle cx="47.5" cy="74.5" r="2.5" fill="#408EC6"/>
<circle cx="56.5" cy="74.5" r="2.5" fill="#408EC6"/>
<circle cx="65.5" cy="74.5" r="2.5" fill="#408EC6"/>
<circle cx="74.5" cy="74.5" r="2.5" fill="#408EC6"/>
<circle cx="83.5" cy="74.5" r="2.5" fill="#408EC6"/>
<circle cx="92.5" cy="74.5" r="2.5" fill="#408EC6"/>
<circle cx="2.5" cy="83.5" r="2.5" fill="#408EC6"/>
<circle cx="11.5" cy="83.5" r="2.5" fill="#408EC6"/>
<circle cx="20.5" cy="83.5" r="2.5" fill="#408EC6"/>
<circle cx="29.5" cy="83.5" r="2.5" fill="#408EC6"/>
<circle cx="38.5" cy="83.5" r="2.5" fill="#408EC6"/>
<circle cx="47.5" cy="83.5" r="2.5" fill="#408EC6"/>
<circle cx="56.5" cy="83.5" r="2.5" fill="#408EC6"/>
<circle cx="65.5" cy="83.5" r="2.5" fill="#408EC6"/>
<circle cx="74.5" cy="83.5" r="2.5" fill="#408EC6"/>
<circle cx="83.5" cy="83.5" r="2.5" fill="#408EC6"/>
<circle cx="92.5" cy="83.5" r="2.5" fill="#408EC6"/>
<circle cx="2.5" cy="92.5" r="2.5" fill="#408EC6"/>
<circle cx="11.5" cy="92.5" r="2.5" fill="#408EC6"/>
<circle cx="20.5" cy="92.5" r="2.5" fill="#408EC6"/>
<circle cx="29.5" cy="92.5" r="2.5" fill="#408EC6"/>
<circle cx="38.5" cy="92.5" r="2.5" fill="#408EC6"/>
<circle cx="47.5" cy="92.5" r="2.5" fill="#408EC6"/>
<circle cx="56.5" cy="92.5" r="2.5" fill="#408EC6"/>
<circle cx="65.5" cy="92.5" r="2.5" fill="#408EC6"/>
<circle cx="74.5" cy="92.5" r="2.5" fill="#408EC6"/>
<circle cx="83.5" cy="92.5" r="2.5" fill="#408EC6"/>
<circle cx="92.5" cy="92.5" r="2.5" fill="#408EC6"/>
</g>
<g clip-path="url(#clip1_45_1138)">
<circle cx="2.5" cy="92.5" r="2.5" fill="#408EC6"/>
<circle cx="11.5" cy="92.5" r="2.5" fill="#408EC6"/>
<circle cx="20.5" cy="92.5" r="2.5" fill="#408EC6"/>
<circle cx="29.5" cy="92.5" r="2.5" fill="#408EC6"/>
<circle cx="38.5" cy="92.5" r="2.5" fill="#408EC6"/>
<circle cx="47.5" cy="92.5" r="2.5" fill="#408EC6"/>
<circle cx="56.5" cy="92.5" r="2.5" fill="#408EC6"/>
<circle cx="65.5" cy="92.5" r="2.5" fill="#408EC6"/>
<circle cx="74.5" cy="92.5" r="2.5" fill="#408EC6"/>
<circle cx="83.5" cy="92.5" r="2.5" fill="#408EC6"/>
<circle cx="92.5" cy="92.5" r="2.5" fill="#408EC6"/>
<circle cx="2.5" cy="101.5" r="2.5" fill="#408EC6"/>
<circle cx="11.5" cy="101.5" r="2.5" fill="#408EC6"/>
<circle cx="20.5" cy="101.5" r="2.5" fill="#408EC6"/>
<circle cx="29.5" cy="101.5" r="2.5" fill="#408EC6"/>
<circle cx="38.5" cy="101.5" r="2.5" fill="#408EC6"/>
<circle cx="47.5" cy="101.5" r="2.5" fill="#408EC6"/>
<circle cx="56.5" cy="101.5" r="2.5" fill="#408EC6"/>
<circle cx="65.5" cy="101.5" r="2.5" fill="#408EC6"/>
<circle cx="74.5" cy="101.5" r="2.5" fill="#408EC6"/>
<circle cx="83.5" cy="101.5" r="2.5" fill="#408EC6"/>
<circle cx="92.5" cy="101.5" r="2.5" fill="#408EC6"/>
<circle cx="2.5" cy="110.5" r="2.5" fill="#408EC6"/>
<circle cx="11.5" cy="110.5" r="2.5" fill="#408EC6"/>
<circle cx="20.5" cy="110.5" r="2.5" fill="#408EC6"/>
<circle cx="29.5" cy="110.5" r="2.5" fill="#408EC6"/>
<circle cx="38.5" cy="110.5" r="2.5" fill="#408EC6"/>
<circle cx="47.5" cy="110.5" r="2.5" fill="#408EC6"/>
<circle cx="56.5" cy="110.5" r="2.5" fill="#408EC6"/>
<circle cx="65.5" cy="110.5" r="2.5" fill="#408EC6"/>
<circle cx="74.5" cy="110.5" r="2.5" fill="#408EC6"/>
<circle cx="83.5" cy="110.5" r="2.5" fill="#408EC6"/>
<circle cx="92.5" cy="110.5" r="2.5" fill="#408EC6"/>
<circle cx="2.5" cy="119.5" r="2.5" fill="#408EC6"/>
<circle cx="11.5" cy="119.5" r="2.5" fill="#408EC6"/>
<circle cx="20.5" cy="119.5" r="2.5" fill="#408EC6"/>
<circle cx="29.5" cy="119.5" r="2.5" fill="#408EC6"/>
<circle cx="38.5" cy="119.5" r="2.5" fill="#408EC6"/>
<circle cx="47.5" cy="119.5" r="2.5" fill="#408EC6"/>
<circle cx="56.5" cy="119.5" r="2.5" fill="#408EC6"/>
<circle cx="65.5" cy="119.5" r="2.5" fill="#408EC6"/>
<circle cx="74.5" cy="119.5" r="2.5" fill="#408EC6"/>
<circle cx="83.5" cy="119.5" r="2.5" fill="#408EC6"/>
<circle cx="92.5" cy="119.5" r="2.5" fill="#408EC6"/>
<circle cx="2.5" cy="128.5" r="2.5" fill="#408EC6"/>
<circle cx="11.5" cy="128.5" r="2.5" fill="#408EC6"/>
<circle cx="20.5" cy="128.5" r="2.5" fill="#408EC6"/>
<circle cx="29.5" cy="128.5" r="2.5" fill="#408EC6"/>
<circle cx="38.5" cy="128.5" r="2.5" fill="#408EC6"/>
<circle cx="47.5" cy="128.5" r="2.5" fill="#408EC6"/>
<circle cx="56.5" cy="128.5" r="2.5" fill="#408EC6"/>
<circle cx="65.5" cy="128.5" r="2.5" fill="#408EC6"/>
<circle cx="74.5" cy="128.5" r="2.5" fill="#408EC6"/>
<circle cx="83.5" cy="128.5" r="2.5" fill="#408EC6"/>
<circle cx="92.5" cy="128.5" r="2.5" fill="#408EC6"/>
<circle cx="2.5" cy="137.5" r="2.5" fill="#408EC6"/>
<circle cx="11.5" cy="137.5" r="2.5" fill="#408EC6"/>
<circle cx="20.5" cy="137.5" r="2.5" fill="#408EC6"/>
<circle cx="29.5" cy="137.5" r="2.5" fill="#408EC6"/>
<circle cx="38.5" cy="137.5" r="2.5" fill="#408EC6"/>
<circle cx="47.5" cy="137.5" r="2.5" fill="#408EC6"/>
<circle cx="56.5" cy="137.5" r="2.5" fill="#408EC6"/>
<circle cx="65.5" cy="137.5" r="2.5" fill="#408EC6"/>
<circle cx="74.5" cy="137.5" r="2.5" fill="#408EC6"/>
<circle cx="83.5" cy="137.5" r="2.5" fill="#408EC6"/>
<circle cx="92.5" cy="137.5" r="2.5" fill="#408EC6"/>
<circle cx="2.5" cy="146.5" r="2.5" fill="#408EC6"/>
<circle cx="11.5" cy="146.5" r="2.5" fill="#408EC6"/>
<circle cx="20.5" cy="146.5" r="2.5" fill="#408EC6"/>
<circle cx="29.5" cy="146.5" r="2.5" fill="#408EC6"/>
<circle cx="38.5" cy="146.5" r="2.5" fill="#408EC6"/>
<circle cx="47.5" cy="146.5" r="2.5" fill="#408EC6"/>
<circle cx="56.5" cy="146.5" r="2.5" fill="#408EC6"/>
<circle cx="65.5" cy="146.5" r="2.5" fill="#408EC6"/>
<circle cx="74.5" cy="146.5" r="2.5" fill="#408EC6"/>
<circle cx="83.5" cy="146.5" r="2.5" fill="#408EC6"/>
<circle cx="92.5" cy="146.5" r="2.5" fill="#408EC6"/>
<circle cx="2.5" cy="155.5" r="2.5" fill="#408EC6"/>
<circle cx="11.5" cy="155.5" r="2.5" fill="#408EC6"/>
<circle cx="20.5" cy="155.5" r="2.5" fill="#408EC6"/>
<circle cx="29.5" cy="155.5" r="2.5" fill="#408EC6"/>
<circle cx="38.5" cy="155.5" r="2.5" fill="#408EC6"/>
<circle cx="47.5" cy="155.5" r="2.5" fill="#408EC6"/>
<circle cx="56.5" cy="155.5" r="2.5" fill="#408EC6"/>
<circle cx="65.5" cy="155.5" r="2.5" fill="#408EC6"/>
<circle cx="74.5" cy="155.5" r="2.5" fill="#408EC6"/>
<circle cx="83.5" cy="155.5" r="2.5" fill="#408EC6"/>
<circle cx="92.5" cy="155.5" r="2.5" fill="#408EC6"/>
<circle cx="2.5" cy="164.5" r="2.5" fill="#408EC6"/>
<circle cx="11.5" cy="164.5" r="2.5" fill="#408EC6"/>
<circle cx="20.5" cy="164.5" r="2.5" fill="#408EC6"/>
<circle cx="29.5" cy="164.5" r="2.5" fill="#408EC6"/>
<circle cx="38.5" cy="164.5" r="2.5" fill="#408EC6"/>
<circle cx="47.5" cy="164.5" r="2.5" fill="#408EC6"/>
<circle cx="56.5" cy="164.5" r="2.5" fill="#408EC6"/>
<circle cx="65.5" cy="164.5" r="2.5" fill="#408EC6"/>
<circle cx="74.5" cy="164.5" r="2.5" fill="#408EC6"/>
<circle cx="83.5" cy="164.5" r="2.5" fill="#408EC6"/>
<circle cx="92.5" cy="164.5" r="2.5" fill="#408EC6"/>
<circle cx="2.5" cy="173.5" r="2.5" fill="#408EC6"/>
<circle cx="11.5" cy="173.5" r="2.5" fill="#408EC6"/>
<circle cx="20.5" cy="173.5" r="2.5" fill="#408EC6"/>
<circle cx="29.5" cy="173.5" r="2.5" fill="#408EC6"/>
<circle cx="38.5" cy="173.5" r="2.5" fill="#408EC6"/>
<circle cx="47.5" cy="173.5" r="2.5" fill="#408EC6"/>
<circle cx="56.5" cy="173.5" r="2.5" fill="#408EC6"/>
<circle cx="65.5" cy="173.5" r="2.5" fill="#408EC6"/>
<circle cx="74.5" cy="173.5" r="2.5" fill="#408EC6"/>
<circle cx="83.5" cy="173.5" r="2.5" fill="#408EC6"/>
<circle cx="92.5" cy="173.5" r="2.5" fill="#408EC6"/>
<circle cx="2.5" cy="182.5" r="2.5" fill="#408EC6"/>
<circle cx="11.5" cy="182.5" r="2.5" fill="#408EC6"/>
<circle cx="20.5" cy="182.5" r="2.5" fill="#408EC6"/>
<circle cx="29.5" cy="182.5" r="2.5" fill="#408EC6"/>
<circle cx="38.5" cy="182.5" r="2.5" fill="#408EC6"/>
<circle cx="47.5" cy="182.5" r="2.5" fill="#408EC6"/>
<circle cx="56.5" cy="182.5" r="2.5" fill="#408EC6"/>
<circle cx="65.5" cy="182.5" r="2.5" fill="#408EC6"/>
<circle cx="74.5" cy="182.5" r="2.5" fill="#408EC6"/>
<circle cx="83.5" cy="182.5" r="2.5" fill="#408EC6"/>
<circle cx="92.5" cy="182.5" r="2.5" fill="#408EC6"/>
</g>
<defs>
<clipPath id="clip0_45_1138">
<rect width="100" height="100" fill="white"/>
</clipPath>
<clipPath id="clip1_45_1138">
<rect width="100" height="100" fill="white" transform="translate(0 90)"/>
</clipPath>
</defs>
</svg>
