<svg width="40" height="40" viewBox="0 0 40 40" fill="none" xmlns="http://www.w3.org/2000/svg">
<g clip-path="url(#clip0_146_1092)">
<path d="M12.3438 30.5469V19.4531L5.9375 14.5312V28.2031C5.9375 29.7656 6.71875 30.5469 8.28125 30.5469" fill="#4285F4"/>
<path d="M12.0312 19.375L20 25.3906L27.9688 19.375V11.7188L20 17.7344L12.0312 11.7188" fill="#EA4335"/>
<path d="M27.6562 30.5469V19.4531L34.0625 14.5312V28.2031C34.0625 29.7656 33.2812 30.5469 31.7188 30.5469" fill="#34A853"/>
<path d="M5.9375 14.6874L12.3438 19.6093V11.9531L10 10.1562C7.89062 8.51556 5.9375 10.1562 5.9375 12.1874" fill="#C5221F"/>
<path d="M34.0625 14.6874L27.6562 19.6093V11.9531L30 10.1562C32.1094 8.51556 34.0625 10.1562 34.0625 12.1874" fill="#FBBC04"/>
</g>
<defs>
<clipPath id="clip0_146_1092">
<rect width="40" height="40" fill="white"/>
</clipPath>
</defs>
</svg>
