<svg width="35" height="35" viewBox="0 0 35 35" fill="none" xmlns="http://www.w3.org/2000/svg">
<g clip-path="url(#clip0_146_1079)">
<path d="M25.8982 20.1116C25.83 20.0789 23.2784 18.8224 22.825 18.6592C22.6399 18.5927 22.4416 18.5278 22.2307 18.5278C21.8861 18.5278 21.5967 18.6995 21.3712 19.0368C21.1163 19.4157 20.3447 20.3176 20.1063 20.587C20.0752 20.6226 20.0327 20.6651 20.0072 20.6651C19.9844 20.6651 19.5895 20.5025 19.47 20.4506C16.7328 19.2616 14.6552 16.4024 14.3703 15.9202C14.3296 15.8509 14.3279 15.8194 14.3276 15.8194C14.3376 15.7827 14.4296 15.6905 14.4771 15.6428C14.6161 15.5053 14.7667 15.3241 14.9124 15.1488C14.9813 15.0657 15.0504 14.9825 15.1183 14.9041C15.3296 14.6582 15.4237 14.4673 15.5328 14.2461L15.59 14.1313C15.8563 13.602 15.6288 13.1555 15.5553 13.0113C15.495 12.8906 14.4176 10.2903 14.303 10.0172C14.0276 9.35796 13.6636 9.05103 13.1578 9.05103C13.1109 9.05103 13.1578 9.05103 12.961 9.05932C12.7213 9.06943 11.4162 9.24125 10.8392 9.605C10.2272 9.9908 9.19202 11.2206 9.19202 13.3833C9.19202 15.3298 10.4272 17.1676 10.9576 17.8666C10.9708 17.8842 10.995 17.92 11.0301 17.9714C13.0611 20.9375 15.593 23.1357 18.1597 24.161C20.6308 25.1481 21.8009 25.2622 22.4661 25.2622H22.4662C22.7458 25.2622 22.9695 25.2402 23.1669 25.2208L23.2921 25.2089C24.1458 25.1332 26.0217 24.1611 26.4484 22.9753C26.7845 22.0414 26.8732 21.0209 26.6495 20.6506C26.4963 20.3988 26.2324 20.272 25.8982 20.1116Z" fill="#24D366"/>
<path d="M17.8107 0C8.33156 0 0.619746 7.65386 0.619746 17.0617C0.619746 20.1045 1.43406 23.0831 2.97668 25.6899L0.0240645 34.3995C-0.0309355 34.5619 0.00997361 34.7415 0.130087 34.8638C0.216792 34.9523 0.334405 35 0.454519 35C0.500542 35 0.546905 34.9931 0.592133 34.9786L9.67395 32.0927C12.1592 33.4206 14.968 34.1215 17.8108 34.1215C27.289 34.1216 35 26.4685 35 17.0617C35 7.65386 27.289 0 17.8107 0ZM17.8107 30.5675C15.1358 30.5675 12.545 29.7951 10.3179 28.3338C10.243 28.2845 10.1561 28.2593 10.0686 28.2593C10.0224 28.2593 9.976 28.2664 9.93088 28.2807L5.38145 29.7268L6.85009 25.394C6.89759 25.2537 6.87384 25.0991 6.78634 24.9795C5.09043 22.6623 4.19395 19.9244 4.19395 17.0617C4.19395 9.61364 10.3024 3.55409 17.8105 3.55409C25.3178 3.55409 31.4255 9.61364 31.4255 17.0617C31.4257 24.5089 25.318 30.5675 17.8107 30.5675Z" fill="#24D366"/>
</g>
<defs>
<clipPath id="clip0_146_1079">
<rect width="35" height="35" fill="white"/>
</clipPath>
</defs>
</svg>
